<?xml version="1.0" standalone="no"?>
<!DOCTYPE svg PUBLIC "-//W3C//DTD SVG 20010904//EN"
 "http://www.w3.org/TR/2001/REC-SVG-20010904/DTD/svg10.dtd">
<svg version="1.0" xmlns="http://www.w3.org/2000/svg"
 width="70.000000pt" height="70.000000pt" viewBox="0 0 70.000000 70.000000"
 preserveAspectRatio="xMidYMid meet">
<metadata>
Created by potrace 1.14, written by Peter Selinger 2001-2017
</metadata>
<g transform="translate(0.000000,70.000000) scale(0.100000,-0.100000)"
fill="#000000" stroke="none">
<path d="M127 661 c-12 -13 -17 -21 -11 -18 7 4 14 -2 17 -13 3 -13 0 -20 -10
-20 -12 0 -11 -3 3 -17 15 -16 15 -17 -2 -24 -11 -4 -13 -8 -5 -8 7 -1 11 -7
7 -16 -3 -8 0 -15 6 -15 7 0 3 -7 -8 -16 -10 -8 -13 -13 -6 -9 9 5 12 -10 12
-59 0 -75 -1 -82 -15 -78 -5 1 -3 -3 5 -10 20 -17 19 -106 -1 -119 -11 -7 -11
-9 4 -9 9 0 17 -5 17 -11 0 -5 -6 -7 -12 -3 -9 5 -9 3 1 -9 11 -14 11 -18 -3
-23 -14 -5 -14 -8 -1 -21 18 -17 20 -37 3 -27 -7 5 -8 3 -4 -5 5 -7 8 -37 7
-67 0 -35 4 -55 12 -56 7 -1 38 -2 70 -3 56 -1 58 0 64 27 3 15 9 25 13 23 5
-3 7 6 6 20 -2 13 1 22 5 19 5 -3 9 2 9 10 0 9 6 16 13 16 9 0 8 3 -2 9 -9 6
-10 11 -2 15 6 4 9 12 6 17 -4 5 -1 9 4 9 6 0 11 9 11 21 0 13 4 18 12 13 6
-4 8 -3 5 3 -4 6 0 28 9 49 9 22 21 50 27 64 6 14 10 28 9 33 -1 4 2 7 6 7 5
0 9 7 10 15 1 8 3 21 4 28 1 7 7 18 13 24 8 8 11 -43 10 -203 -1 -118 1 -215
4 -215 28 -7 103 -3 108 5 12 19 12 56 0 56 -8 0 -8 3 -2 8 13 9 15 42 3 42
-7 0 -7 5 -1 13 11 14 11 27 0 45 -5 6 -4 12 1 12 13 0 10 33 -3 42 -6 5 -5 8
3 8 9 0 10 5 3 19 -6 10 -8 21 -5 23 10 11 12 48 3 48 -6 0 -7 5 -3 12 9 15
10 58 2 80 -4 9 -4 19 0 23 11 11 10 60 -2 67 -7 5 -7 8 -1 8 12 0 13 69 3 86
-4 6 -4 14 -1 18 4 4 8 18 9 32 0 13 -1 22 -4 20 -2 -3 -14 -1 -26 4 -13 4
-29 4 -36 0 -8 -5 -21 -5 -30 0 -23 12 -56 -12 -65 -47 -3 -16 -13 -42 -22
-60 -8 -17 -16 -37 -17 -45 -1 -7 -13 -38 -27 -68 -13 -30 -23 -63 -23 -72 1
-10 -2 -18 -7 -18 -6 0 -27 -59 -32 -90 0 -3 -7 -11 -14 -18 -7 -8 -11 -17 -8
-22 3 -5 2 -11 -3 -14 -12 -7 -9 157 3 167 6 6 6 10 -3 14 -6 2 -9 9 -6 15 10
16 10 207 0 201 -5 -4 -5 0 -1 8 12 18 14 49 4 55 -4 2 -10 0 -14 -6 -4 -6
-12 -7 -18 -3 -25 16 -68 8 -90 -16z"/>
</g>
</svg>
